<svg xmlns="http://www.w3.org/2000/svg" viewBox="0 0 1024 1024" fill="none">
  <defs>
    <linearGradient id="aurora" x1="136" y1="526" x2="888" y2="526" gradientUnits="userSpaceOnUse">
      <stop offset="0" stop-color="#8070C4"/>
      <stop offset="0.25" stop-color="#4D8FD2"/>
      <stop offset="0.50" stop-color="#53AB8B"/>
      <stop offset="0.72" stop-color="#D4AE5C"/>
      <stop offset="1" stop-color="#C26A95"/>
    </linearGradient>
    <filter id="softGlow" x="-20%" y="-20%" width="140%" height="140%">
      <feGaussianBlur stdDeviation="14"/>
    </filter>
  </defs>
  <path d="M146 528C300 322 724 322 878 528" stroke="#B8953A" stroke-opacity="0.20" stroke-width="62" stroke-linecap="round" filter="url(#softGlow)"/>
  <path d="M146 528C305 705 719 705 878 528" stroke="#B8953A" stroke-opacity="0.16" stroke-width="50" stroke-linecap="round" filter="url(#softGlow)"/>
  <path d="M146 528C305 705 719 705 878 528" stroke="#B8953A" stroke-opacity="0.82" stroke-width="24" stroke-linecap="round"/>
  <path d="M208 520C352 656 672 656 816 520" stroke="#D4AE5C" stroke-opacity="0.46" stroke-width="8" stroke-linecap="round"/>
  <path d="M146 528C300 322 724 322 878 528" stroke="#B8953A" stroke-opacity="0.58" stroke-width="18" stroke-linecap="round"/>
  <path d="M168 530C244 405 345 358 454 344" stroke="#8070C4" stroke-width="22" stroke-linecap="round"/>
  <path d="M310 410C408 354 499 334 594 349" stroke="#4D8FD2" stroke-width="22" stroke-linecap="round"/>
  <path d="M436 357C534 325 634 341 724 403" stroke="#53AB8B" stroke-width="22" stroke-linecap="round"/>
  <path d="M594 361C688 380 760 430 828 503" stroke="#D4AE5C" stroke-width="22" stroke-linecap="round"/>
  <path d="M710 422C775 456 827 503 878 528" stroke="#C26A95" stroke-width="22" stroke-linecap="round"/>
  <path d="M512 434C546 488 562 529 534 598C526 617 516 634 512 640C508 634 498 617 490 598C462 529 478 488 512 434Z" fill="#B8953A"/>
  <path d="M520 472C541 521 530 571 506 600C493 564 478 528 520 472Z" fill="#E15E39"/>
  <ellipse cx="512" cy="588" rx="12" ry="14" fill="#1C1A17" fill-opacity="0.62"/>
</svg>
